<svg xmlns="http://www.w3.org/2000/svg" width="586" height="288" viewBox="0 0 586 288" font-family="'Segoe UI', Calibri, Arial, sans-serif"><rect width="586" height="288" fill="#ffffff"/><line x1="175" y1="6" x2="175" y2="266" stroke="#c3c2b7" stroke-width="1"/><text x="175" y="281" font-size="10.5" fill="#898781" text-anchor="middle">0</text><line x1="248.66666666666669" y1="6" x2="248.66666666666669" y2="266" stroke="#e1e0d9" stroke-width="1"/><text x="248.66666666666669" y="281" font-size="10.5" fill="#898781" text-anchor="middle">1</text><line x1="322.33333333333337" y1="6" x2="322.33333333333337" y2="266" stroke="#e1e0d9" stroke-width="1"/><text x="322.33333333333337" y="281" font-size="10.5" fill="#898781" text-anchor="middle">2</text><line x1="396" y1="6" x2="396" y2="266" stroke="#e1e0d9" stroke-width="1"/><text x="396" y="281" font-size="10.5" fill="#898781" text-anchor="middle">3</text><text x="165" y="23.5" font-size="12" fill="#1f1f1f" text-anchor="end">Unidad especializada</text><path d="M175,12 H319.33333333333337 Q322.33333333333337,12 322.33333333333337,15 V23 Q322.33333333333337,26 319.33333333333337,26 H175 Z" fill="#2a78d6"/><text x="328.33333333333337" y="23.5" font-size="11.5" fill="#1f1f1f">2 de 3<tspan fill="#898781"> · en funcionamiento</tspan></text><text x="165" y="49.5" font-size="12" fill="#1f1f1f" text-anchor="end">Norma propia</text><path d="M175,38 H245.66666666666669 Q248.66666666666669,38 248.66666666666669,41 V49 Q248.66666666666669,52 245.66666666666669,52 H175 Z" fill="#2a78d6"/><text x="254.66666666666669" y="49.5" font-size="11.5" fill="#1f1f1f">1 de 3<tspan fill="#898781"> · solo en la universidad</tspan></text><text x="165" y="75.5" font-size="12" fill="#1f1f1f" text-anchor="end">Presencia en pregrado</text><path d="M175,64 H319.33333333333337 Q322.33333333333337,64 322.33333333333337,67 V75 Q322.33333333333337,78 319.33333333333337,78 H175 Z" fill="#2a78d6"/><text x="328.33333333333337" y="75.5" font-size="11.5" fill="#1f1f1f">2 de 3<tspan fill="#898781"> · en funcionamiento</tspan></text><text x="165" y="101.5" font-size="12" fill="#1f1f1f" text-anchor="end">Formación estructurada</text><path d="M175,90 H319.33333333333337 Q322.33333333333337,90 322.33333333333337,93 V101 Q322.33333333333337,104 319.33333333333337,104 H175 Z" fill="#2a78d6"/><text x="328.33333333333337" y="101.5" font-size="11.5" fill="#1f1f1f">2 de 3<tspan fill="#898781"> · en funcionamiento</tspan></text><text x="165" y="127.5" font-size="12" fill="#1f1f1f" text-anchor="end">Herramienta desplegada</text><path d="M175,116 H393 Q396,116 396,119 V127 Q396,130 393,130 H175 Z" fill="#2a78d6"/><text x="402" y="127.5" font-size="11.5" fill="#1f1f1f">3 de 3<tspan fill="#898781"> · formalizada</tspan></text><text x="165" y="153.5" font-size="12" fill="#1f1f1f" text-anchor="end">Adopción en la enseñanza</text><path d="M175,142 H245.66666666666669 Q248.66666666666669,142 248.66666666666669,145 V153 Q248.66666666666669,156 245.66666666666669,156 H175 Z" fill="#2a78d6"/><text x="254.66666666666669" y="153.5" font-size="11.5" fill="#1f1f1f">1 de 3<tspan fill="#898781"> · solo en la universidad</tspan></text><text x="165" y="179.5" font-size="12" fill="#1f1f1f" text-anchor="end">Alcance declarado</text><path d="M175,168 H319.33333333333337 Q322.33333333333337,168 322.33333333333337,171 V179 Q322.33333333333337,182 319.33333333333337,182 H175 Z" fill="#2a78d6"/><text x="328.33333333333337" y="179.5" font-size="11.5" fill="#1f1f1f">2 de 3<tspan fill="#898781"> · en funcionamiento</tspan></text><text x="165" y="205.5" font-size="12" fill="#1f1f1f" text-anchor="end">Investigación</text><path d="M175,194 H319.33333333333337 Q322.33333333333337,194 322.33333333333337,197 V205 Q322.33333333333337,208 319.33333333333337,208 H175 Z" fill="#2a78d6"/><text x="328.33333333333337" y="205.5" font-size="11.5" fill="#1f1f1f">2 de 3<tspan fill="#898781"> · en funcionamiento</tspan></text><text x="165" y="231.5" font-size="12" fill="#1f1f1f" text-anchor="end">Transferencia</text><path d="M175,220 H393 Q396,220 396,223 V231 Q396,234 393,234 H175 Z" fill="#2a78d6"/><text x="402" y="231.5" font-size="11.5" fill="#1f1f1f">3 de 3<tspan fill="#898781"> · formalizada</tspan></text><text x="165" y="257.5" font-size="12" fill="#1f1f1f" text-anchor="end">Evaluación de efecto</text><text x="181" y="257.5" font-size="11.5" fill="#1f1f1f">0 de 3<tspan fill="#898781"> · no localizada</tspan></text></svg>