<svg xmlns="http://www.w3.org/2000/svg" width="586" height="350" viewBox="0 0 586 350" font-family="'Segoe UI', Calibri, Arial, sans-serif"><rect width="586" height="350" fill="#ffffff"/><line x1="168.56" y1="6" x2="168.56" y2="314" stroke="#c3c2b7" stroke-width="1"/><text x="168.56" y="329" font-size="10.5" fill="#898781" text-anchor="middle">0</text><line x1="274.37333333333333" y1="6" x2="274.37333333333333" y2="314" stroke="#e1e0d9" stroke-width="1"/><text x="274.37333333333333" y="329" font-size="10.5" fill="#898781" text-anchor="middle">1</text><line x1="380.18666666666667" y1="6" x2="380.18666666666667" y2="314" stroke="#e1e0d9" stroke-width="1"/><text x="380.18666666666667" y="329" font-size="10.5" fill="#898781" text-anchor="middle">2</text><line x1="486" y1="6" x2="486" y2="314" stroke="#e1e0d9" stroke-width="1"/><text x="486" y="329" font-size="10.5" fill="#898781" text-anchor="middle">3</text><text x="158.56" y="26.5" font-size="12" fill="#1f1f1f" text-anchor="end">P. U. Católica de Chile</text><path d="M168.56,11 H483 Q486,11 486,14 V26 Q486,29 483,29 H168.56 Z" fill="#4269d0"/><text x="492" y="26.5" font-size="11.5" fill="#1f1f1f">3,00</text><text x="158.56" y="54.5" font-size="12" fill="#1f1f1f" text-anchor="end">U. Autónoma de Chile</text><path d="M168.56,39 H483 Q486,39 486,42 V54 Q486,57 483,57 H168.56 Z" fill="#ff725c"/><text x="492" y="54.5" font-size="11.5" fill="#1f1f1f">3,00</text><text x="158.56" y="82.5" font-size="12" fill="#1f1f1f" text-anchor="end">U. Adolfo Ibáñez</text><path d="M168.56,67 H430.09333333333336 Q433.09333333333336,67 433.09333333333336,70 V82 Q433.09333333333336,85 430.09333333333336,85 H168.56 Z" fill="#3ca951"/><text x="439.09333333333336" y="82.5" font-size="11.5" fill="#1f1f1f">2,50</text><text x="158.56" y="110.5" font-size="12" fill="#1f1f1f" text-anchor="end">U. de Chile</text><path d="M168.56,95 H430.09333333333336 Q433.09333333333336,95 433.09333333333336,98 V110 Q433.09333333333336,113 430.09333333333336,113 H168.56 Z" fill="#e45756"/><text x="439.09333333333336" y="110.5" font-size="11.5" fill="#1f1f1f">2,50</text><text x="158.56" y="138.5" font-size="12" fill="#1f1f1f" text-anchor="end">U. Central de Chile</text><path d="M168.56,123 H324.28 Q327.28,123 327.28,126 V138 Q327.28,141 324.28,141 H168.56 Z" fill="#6cc5b0"/><text x="333.28" y="138.5" font-size="11.5" fill="#1f1f1f">1,50</text><text x="158.56" y="166.5" font-size="12" fill="#1f1f1f" text-anchor="end">U. del Desarrollo</text><path d="M168.56,151 H271.37333333333333 Q274.37333333333333,151 274.37333333333333,154 V166 Q274.37333333333333,169 271.37333333333333,169 H168.56 Z" fill="#ff8ab7"/><text x="280.37333333333333" y="166.5" font-size="11.5" fill="#1f1f1f">1,00</text><text x="158.56" y="194.5" font-size="12" fill="#1f1f1f" text-anchor="end">U. Diego Portales</text><path d="M168.56,179 H271.37333333333333 Q274.37333333333333,179 274.37333333333333,182 V194 Q274.37333333333333,197 271.37333333333333,197 H168.56 Z" fill="#efb118"/><text x="280.37333333333333" y="194.5" font-size="11.5" fill="#1f1f1f">1,00</text><text x="158.56" y="222.5" font-size="12" fill="#1f1f1f" text-anchor="end">U. de Concepción</text><path d="M168.56,207 H218.46666666666667 Q221.46666666666667,207 221.46666666666667,210 V222 Q221.46666666666667,225 218.46666666666667,225 H168.56 Z" fill="#9c6b4e"/><text x="227.46666666666667" y="222.5" font-size="11.5" fill="#1f1f1f">0,50</text><text x="158.56" y="250.5" font-size="12" fill="#1f1f1f" text-anchor="end">U. de los Andes</text><path d="M168.56,235 H218.46666666666667 Q221.46666666666667,235 221.46666666666667,238 V250 Q221.46666666666667,253 218.46666666666667,253 H168.56 Z" fill="#97bbf5"/><text x="227.46666666666667" y="250.5" font-size="11.5" fill="#1f1f1f">0,50</text><text x="158.56" y="278.5" font-size="12" fill="#1f1f1f" text-anchor="end">U. Andrés Bello</text><text x="174.56" y="278.5" font-size="11.5" fill="#1f1f1f">0,00</text><text x="158.56" y="306.5" font-size="12" fill="#1f1f1f" text-anchor="end">Promedio de las diez</text><path d="M168.56,291 H329.5706666666666 Q332.5706666666666,291 332.5706666666666,294 V306 Q332.5706666666666,309 329.5706666666666,309 H168.56 Z" fill="#b8b6ae"/><text x="338.5706666666666" y="306.5" font-size="11.5" fill="#1f1f1f">1,55</text><text x="327.28" y="344" font-size="10.5" fill="#898781" text-anchor="middle">Investigación y Desarrollo · puntaje de 0 a 3</text></svg>