<svg xmlns="http://www.w3.org/2000/svg" width="586" height="210" viewBox="0 0 586 210" font-family="'Segoe UI', Calibri, Arial, sans-serif"><rect width="586" height="210" fill="#ffffff"/><line x1="316.40000000000003" y1="6" x2="316.40000000000003" y2="188" stroke="#c3c2b7" stroke-width="1"/><text x="316.40000000000003" y="203" font-size="10.5" fill="#898781" text-anchor="middle">0 %</text><line x1="372.3" y1="6" x2="372.3" y2="188" stroke="#e1e0d9" stroke-width="1"/><text x="372.3" y="203" font-size="10.5" fill="#898781" text-anchor="middle">25 %</text><line x1="428.20000000000005" y1="6" x2="428.20000000000005" y2="188" stroke="#e1e0d9" stroke-width="1"/><text x="428.20000000000005" y="203" font-size="10.5" fill="#898781" text-anchor="middle">50 %</text><line x1="484.1" y1="6" x2="484.1" y2="188" stroke="#e1e0d9" stroke-width="1"/><text x="484.1" y="203" font-size="10.5" fill="#898781" text-anchor="middle">75 %</text><line x1="540" y1="6" x2="540" y2="188" stroke="#e1e0d9" stroke-width="1"/><text x="540" y="203" font-size="10.5" fill="#898781" text-anchor="middle">100 %</text><text x="306.40000000000003" y="23.5" font-size="12" fill="#1f1f1f" text-anchor="end">Preocupación docente por la capacidad crítica</text><path d="M316.40000000000003,12 H498.988 Q501.988,12 501.988,15 V23 Q501.988,26 498.988,26 H316.40000000000003 Z" fill="#2a78d6"/><text x="507.988" y="23.5" font-size="11.5" fill="#1f1f1f">83 %</text><text x="306.40000000000003" y="49.5" font-size="12" fill="#1f1f1f" text-anchor="end">Docentes que perciben falta de claridad</text><path d="M316.40000000000003,38 H492.28 Q495.28,38 495.28,41 V49 Q495.28,52 492.28,52 H316.40000000000003 Z" fill="#2a78d6"/><text x="501.28" y="49.5" font-size="11.5" fill="#1f1f1f">80 %</text><text x="306.40000000000003" y="75.5" font-size="12" fill="#1f1f1f" text-anchor="end">Estudiantes sin orientación suficiente</text><path d="M316.40000000000003,64 H440.85200000000003 Q443.85200000000003,64 443.85200000000003,67 V75 Q443.85200000000003,78 440.85200000000003,78 H316.40000000000003 Z" fill="#2a78d6"/><text x="449.85200000000003" y="75.5" font-size="11.5" fill="#1f1f1f">57 %</text><text x="306.40000000000003" y="101.5" font-size="12" fill="#1f1f1f" text-anchor="end">Docentes al inicio de su alfabetización</text><path d="M316.40000000000003,90 H402.84000000000003 Q405.84000000000003,90 405.84000000000003,93 V101 Q405.84000000000003,104 402.84000000000003,104 H316.40000000000003 Z" fill="#2a78d6"/><text x="411.84000000000003" y="101.5" font-size="11.5" fill="#1f1f1f">40 %</text><text x="306.40000000000003" y="127.5" font-size="12" fill="#1f1f1f" text-anchor="end">Docentes que participaron en la política</text><path d="M316.40000000000003,116 H382.716 Q385.716,116 385.716,119 V127 Q385.716,130 382.716,130 H316.40000000000003 Z" fill="#2a78d6"/><text x="391.716" y="127.5" font-size="11.5" fill="#1f1f1f">31 %</text><text x="306.40000000000003" y="153.5" font-size="12" fill="#1f1f1f" text-anchor="end">Estudiantes que ven preparados a sus docentes</text><path d="M316.40000000000003,142 H378.244 Q381.244,142 381.244,145 V153 Q381.244,156 378.244,156 H316.40000000000003 Z" fill="#2a78d6"/><text x="387.244" y="153.5" font-size="11.5" fill="#1f1f1f">29 %</text><text x="306.40000000000003" y="179.5" font-size="12" fill="#1f1f1f" text-anchor="end">Docentes con nivel avanzado o experto</text><path d="M316.40000000000003,168 H351.41200000000003 Q354.41200000000003,168 354.41200000000003,171 V179 Q354.41200000000003,182 351.41200000000003,182 H316.40000000000003 Z" fill="#2a78d6"/><text x="360.41200000000003" y="179.5" font-size="11.5" fill="#1f1f1f">17 %</text></svg>