<svg xmlns="http://www.w3.org/2000/svg" width="586" height="260" viewBox="0 0 586 260" font-family="'Segoe UI', Calibri, Arial, sans-serif"><rect width="586" height="260" fill="#ffffff"/><rect x="34" y="7" width="10" height="10" rx="2" fill="#2a78d6"/><text x="49" y="16" font-size="11" fill="#52514e">Usa IA generativa en trabajos evaluados</text><rect x="34" y="24" width="10" height="10" rx="2" fill="#86b6ef"/><text x="49" y="33" font-size="11" fill="#52514e">Inserta texto generado directamente en la entrega</text><line x1="34" y1="234" x2="576" y2="234" stroke="#c3c2b7"/><text x="28" y="238" font-size="10.5" fill="#898781" text-anchor="end">0</text><line x1="34" y1="189.25" x2="576" y2="189.25" stroke="#e1e0d9"/><text x="28" y="193.25" font-size="10.5" fill="#898781" text-anchor="end">25</text><line x1="34" y1="144.5" x2="576" y2="144.5" stroke="#e1e0d9"/><text x="28" y="148.5" font-size="10.5" fill="#898781" text-anchor="end">50</text><line x1="34" y1="99.75" x2="576" y2="99.75" stroke="#e1e0d9"/><text x="28" y="103.75" font-size="10.5" fill="#898781" text-anchor="end">75</text><line x1="34" y1="55" x2="576" y2="55" stroke="#e1e0d9"/><text x="28" y="59" font-size="10.5" fill="#898781" text-anchor="end">100</text><line x1="34" y1="234" x2="576" y2="234" stroke="#c3c2b7"/><path d="M99.33333333333333,234 V142.13 Q99.33333333333333,139.13 102.33333333333333,139.13 H120.33333333333333 Q123.33333333333333,139.13 123.33333333333333,142.13 V234 Z" fill="#2a78d6"/><text x="111.33333333333333" y="134.13" font-size="11" fill="#1f1f1f" text-anchor="middle">53 %</text><path d="M125.33333333333333,234 V231.63 Q125.33333333333333,228.63 128.33333333333331,228.63 H146.33333333333331 Q149.33333333333331,228.63 149.33333333333331,231.63 V234 Z" fill="#86b6ef"/><text x="137.33333333333331" y="223.63" font-size="11" fill="#1f1f1f" text-anchor="middle">3 %</text><text x="124.33333333333333" y="251" font-size="11" fill="#52514e" text-anchor="middle">2024</text><path d="M280,234 V79.47999999999999 Q280,76.47999999999999 283,76.47999999999999 H301 Q304,76.47999999999999 304,79.47999999999999 V234 Z" fill="#2a78d6"/><text x="292" y="71.47999999999999" font-size="11" fill="#1f1f1f" text-anchor="middle">88 %</text><path d="M306,234 V222.68 Q306,219.68 309,219.68 H327 Q330,219.68 330,222.68 V234 Z" fill="#86b6ef"/><text x="318" y="214.68" font-size="11" fill="#1f1f1f" text-anchor="middle">8 %</text><text x="305" y="251" font-size="11" fill="#52514e" text-anchor="middle">2025</text><path d="M460.66666666666663,234 V68.74000000000001 Q460.66666666666663,65.74000000000001 463.66666666666663,65.74000000000001 H481.66666666666663 Q484.66666666666663,65.74000000000001 484.66666666666663,68.74000000000001 V234 Z" fill="#2a78d6"/><text x="472.66666666666663" y="60.74000000000001" font-size="11" fill="#1f1f1f" text-anchor="middle">94 %</text><path d="M486.66666666666663,234 V215.52 Q486.66666666666663,212.52 489.66666666666663,212.52 H507.66666666666663 Q510.66666666666663,212.52 510.66666666666663,215.52 V234 Z" fill="#86b6ef"/><text x="498.66666666666663" y="207.52" font-size="11" fill="#1f1f1f" text-anchor="middle">12 %</text><text x="485.66666666666663" y="251" font-size="11" fill="#52514e" text-anchor="middle">2026</text></svg>