<svg xmlns="http://www.w3.org/2000/svg" width="586" height="120" viewBox="0 0 586 120" font-family="'Segoe UI', Calibri, Arial, sans-serif"><rect width="586" height="120" fill="#ffffff"/><line x1="270" y1="6" x2="270" y2="96" stroke="#e1e0d9" stroke-width="1"/><text x="270" y="111" font-size="10.5" fill="#898781" text-anchor="middle">-50 %</text><line x1="336" y1="6" x2="336" y2="96" stroke="#52514e" stroke-width="1"/><text x="336" y="111" font-size="10.5" fill="#898781" text-anchor="middle">0 %</text><line x1="402" y1="6" x2="402" y2="96" stroke="#e1e0d9" stroke-width="1"/><text x="402" y="111" font-size="10.5" fill="#898781" text-anchor="middle">+50 %</text><line x1="468" y1="6" x2="468" y2="96" stroke="#e1e0d9" stroke-width="1"/><text x="468" y="111" font-size="10.5" fill="#898781" text-anchor="middle">+100 %</text><line x1="534" y1="6" x2="534" y2="96" stroke="#e1e0d9" stroke-width="1"/><text x="534" y="111" font-size="10.5" fill="#898781" text-anchor="middle">+150 %</text><text x="260" y="25.5" font-size="12" fill="#1f1f1f" text-anchor="end">Tutor con andamiaje docente, durante la práctica</text><path d="M336,14 H500.64 Q503.64,14 503.64,17 V25 Q503.64,28 500.64,28 H336 Z" fill="#2a78d6"/><text x="509.64" y="25.5" font-size="11.5" fill="#1f1f1f">+127 %</text><text x="260" y="55.5" font-size="12" fill="#1f1f1f" text-anchor="end">Acceso libre a GPT-4, durante la práctica</text><path d="M336,44 H396.36 Q399.36,44 399.36,47 V55 Q399.36,58 396.36,58 H336 Z" fill="#2a78d6"/><text x="405.36" y="55.5" font-size="11.5" fill="#1f1f1f">+48 %</text><text x="260" y="85.5" font-size="12" fill="#1f1f1f" text-anchor="end">Acceso libre, al retirar la herramienta</text><path d="M336,74 H316.56 Q313.56,74 313.56,77 V85 Q313.56,88 316.56,88 H336 Z" fill="#e34948"/><text x="307.56" y="85.5" font-size="11.5" fill="#1f1f1f" text-anchor="end">-17 %</text></svg>